<svg xmlns="http://www.w3.org/2000/svg" viewBox="0 0 613.92 636"><defs><style>.cls-1{fill:#e6ccb8;}.cls-2{fill:#d4bdb5;}.cls-3{fill:#e0c3ba;}.cls-4{fill:#730003;}</style></defs><title>myself</title><g id="Cuello_Hombro" data-name="Cuello Hombro"><path class="cls-1" d="M599,500s7,20-17,26l-43,16-78,45s-66,31-60,104,282,21,282,21l256-38,13-24-28-54s-22-73-73-75-122,5-122,5l-10-17Z" transform="translate(-370 -132)"/></g><g id="cabello"><polygon class="cls-2" points="375 24 337 134 422 138.33 425 87 375 24"/><path d="M624.49,505s20.39,59-37.19,53c0,0-51.58,6-56.38-31,0,0-72-2-54-96,0,0-30-71,48-117C524.93,314,576.51,477,624.49,505Z" transform="translate(-370 -132)"/><path d="M710.41,509.25s-1,53.37-29.27,35.58,68.64,68.94,84.79,32.25c0,0,25.24-34.47,47.44-21.13,0,0,39.37-11.12,28.26-25.57,0,0,30.28,22.24,39.37-21.13,0,0-30.28,14.46-37.35-12.23,0,0-66.62-80.06-65.61-86.73S723.53,514.81,710.41,509.25Z" transform="translate(-370 -132)"/><path class="cls-3" d="M611,229.66s-62.11,158.92-38.82,212.89,52.41,80,52.41,80,38.82,30,71.82,4,37.85-20,67-70c0,0,20.38-25,18.44-53,0,0,12.62-84,9.71-137.93S692.57,112.72,611,229.66Z" transform="translate(-370 -132)"/><path d="M558.84,436.47" transform="translate(-370 -132)"/><path d="M554.63,441.5s10.37-21.22,33.83-28.65,32.65-116.73,32.65-116.73,13.44-33,25.66-55.86c3.57-6.67,12-17.35,15.15-18.71a87.35,87.35,0,0,1,12.29-4.27c8.16-2.12,17.6-3,24.56,1,2.32,1.32,7.87,6.57,10.84,7.77,3.3,1.32,8,3.07,12.91,4.56,8.63,2.6,18.17,4.43,23,1.89l2.54-3.26,2.56-3.27s4.87-7,4-5.08S767,200.65,767,192.12V172s-34.64-71.07-161.88-23.64c-3.77,1.41-14.88,7.32-19.91,12.1-15.11,14.33-45.72,46.56-48.78,75.21,0,0-15.3,80.65-21.43,86C515,321.58,548.34,451,554.63,441.5Z" transform="translate(-370 -132)"/><path d="M844,531s49-63.18,17-105-29-145.72-29-145.72S803.78,144,751.89,157.15L767,176.38v18.29l-5.82,18.5-6.68,10.7-2.5,10.6s33,16.3,35,41.78,0,42.8,0,42.8l1,38.72-4,25.48-5,54" transform="translate(-370 -132)"/></g><g id="camisa"><path d="M414,687s483.71,19.19,508.08-87.21A37.75,37.75,0,0,0,923,593s21-7,48,64c0,0-2,24,0,41,0,0,17,51,12,70H370s13.23-71.19,30.61-87.59Z" transform="translate(-370 -132)"/></g><g id="Cara"><path class="cls-4" d="M620,436s46,95,99,28c0,0-11.48-5.44-17.53-10.21-1.73-1.37-4.24-3.79-5.45-3.82a81.21,81.21,0,0,1-12-1s-10.39-7.08-12.74-7.23C659.29,441,622.51,438.51,620,436Z" transform="translate(-370 -132)"/></g></svg>